<svg xmlns="http://www.w3.org/2000/svg" xmlns:xlink="http://www.w3.org/1999/xlink" width="2267" zoomAndPan="magnify" viewBox="0 0 1700.88 1275.749945" height="1700" preserveAspectRatio="xMidYMid meet" version="1.0"><defs><clipPath id="ecff7d6c1c"><path d="M 0.105469 0 L 1700.652344 0 L 1700.652344 1275.5 L 0.105469 1275.5 Z M 0.105469 0 " clip-rule="nonzero"/></clipPath><clipPath id="8f6a920db7"><path d="M 0.105469 0 L 1698 0 L 1698 1274 L 0.105469 1274 Z M 0.105469 0 " clip-rule="nonzero"/></clipPath><clipPath id="5f3cc362b3"><path d="M 579.890625 367.230469 L 1120.535156 367.230469 L 1120.535156 907.871094 L 579.890625 907.871094 Z M 579.890625 367.230469 " clip-rule="nonzero"/></clipPath></defs><g clip-path="url(#ecff7d6c1c)"><path fill="#ffffff" d="M 0.105469 0 L 1700.773438 0 L 1700.773438 1275.5 L 0.105469 1275.5 Z M 0.105469 0 " fill-opacity="1" fill-rule="nonzero"/><path fill="#ffffff" d="M 0.105469 0 L 1700.773438 0 L 1700.773438 1275.5 L 0.105469 1275.5 Z M 0.105469 0 " fill-opacity="1" fill-rule="nonzero"/></g><g clip-path="url(#8f6a920db7)"><path fill="#000000" d="M 0.105469 0 L 1697.902344 0 L 1697.902344 1273.347656 L 0.105469 1273.347656 Z M 0.105469 0 " fill-opacity="1" fill-rule="nonzero"/></g><g clip-path="url(#5f3cc362b3)"><path fill="#b62812" d="M 1120.535156 418.710938 L 1120.535156 392.984375 C 1120.535156 385.878906 1114.785156 380.105469 1107.660156 380.105469 L 1056.175781 380.105469 C 1051.085938 380.105469 1046.984375 380.449219 1043.296875 381.382812 L 1043.296875 380.105469 C 1043.296875 373.003906 1037.546875 367.230469 1030.421875 367.230469 L 953.183594 367.230469 C 930.867188 367.230469 922.78125 379.882812 918.066406 392.984375 L 907.621094 392.984375 C 904.621094 388.976562 901.722656 383.792969 901.722656 380.105469 C 901.699219 373.003906 895.949219 367.230469 888.820312 367.230469 L 798.707031 367.230469 C 792.121094 367.230469 786.613281 372.289062 785.902344 378.804688 C 785.605469 381.507812 780.125 392.957031 771.625 392.957031 L 736.359375 392.957031 C 735.523438 391.976562 734.320312 390.132812 733.261719 387.773438 C 731.199219 383.105469 726.578125 380.082031 721.46875 380.082031 L 592.769531 380.082031 C 585.640625 380.105469 579.890625 385.878906 579.890625 392.984375 L 579.890625 495.949219 C 579.890625 532.296875 590.507812 578.300781 592.746094 587.566406 L 592.644531 607.078125 L 583.921875 615.335938 C 581.34375 617.742188 579.890625 621.132812 579.890625 624.671875 L 579.890625 676.15625 C 579.890625 679.574219 581.242188 682.839844 583.652344 685.25 L 592.746094 694.34375 L 592.746094 751.28125 L 580.554688 787.949219 C 579.769531 790.28125 579.671875 792.765625 580.285156 795.148438 L 592.253906 843.019531 L 580.578125 878.089844 C 579.253906 882.019531 579.917969 886.34375 582.347656 889.6875 C 584.757812 893.03125 588.640625 895.019531 592.769531 895.019531 L 772.976562 895.019531 C 776.390625 895.019531 779.660156 893.667969 782.066406 891.261719 L 783.222656 890.105469 C 790.078125 899.417969 799.589844 907.871094 811.605469 907.871094 L 850.214844 907.871094 C 859.699219 907.871094 867.980469 903.742188 875.28125 900.082031 C 880.269531 897.574219 885.429688 894.996094 888.84375 894.996094 L 953.207031 894.996094 C 956.621094 894.996094 959.890625 893.644531 962.300781 891.234375 L 965.421875 888.113281 C 966.230469 889.148438 966.992188 890.152344 967.753906 891.136719 C 974.09375 899.371094 980.609375 907.871094 991.8125 907.871094 L 1056.175781 907.871094 C 1063.300781 907.871094 1069.050781 902.121094 1069.050781 894.996094 L 1069.050781 885.753906 L 1104.5625 894.601562 C 1108.421875 895.585938 1112.5 894.699219 1115.621094 892.242188 C 1118.742188 889.785156 1120.558594 886.027344 1120.535156 882.042969 C 1120.511719 880.792969 1119.726562 754.476562 1120.535156 689.207031 C 1120.585938 685.742188 1119.207031 682.398438 1116.777344 679.941406 L 1107.683594 670.847656 L 1107.683594 611.820312 C 1107.683594 608.40625 1106.332031 605.136719 1103.921875 602.726562 L 1097.609375 596.414062 L 1105.398438 580.832031 L 1116.800781 569.429688 C 1119.183594 567.019531 1120.535156 563.726562 1120.535156 560.3125 L 1120.339844 495.828125 C 1120.339844 494.796875 1120.214844 493.765625 1119.972656 492.730469 L 1108.445312 445.992188 L 1119.183594 424.488281 C 1120.070312 422.695312 1120.535156 420.703125 1120.535156 418.710938 Z M 967.214844 470.222656 L 1006.386719 495.976562 L 993.3125 573.214844 L 888.820312 495.976562 Z M 721.492188 804.90625 L 670.007812 766.296875 L 695.761719 676.183594 L 798.730469 779.148438 Z M 994.394531 792.027344 L 934.308594 792.027344 L 670.007812 482.140625 L 718.050781 470.222656 L 1030.421875 708.597656 Z M 994.394531 792.027344 " fill-opacity="1" fill-rule="nonzero"/></g></svg>